#!OML:ASF F:\VICON\USERDATA\INSTALL\rory3\rory3.ASF
:FULLY-SPECIFIED
:DEGREES
1242
root 0.810091 10.2973 -0.537257 -14.8626 59.7179 7.05578
lowerback 39.4219 1.58957 -5.53313
upperback 17.3564 1.96124 5.13225
thorax -0.368153 1.02297 7.65044
lowerneck -1.83581 -14.5735 -13.9984
upperneck -23.5318 -17.5776 17.0556
head -3.81404 -8.665 7.64839
rclavicle -4.13472e-014 6.36111e-014
rhumerus 61.7264 1.13586 -65.2433
rradius 145.916
rwrist -55.7277
rhand 2.28124 9.05263
rfingers 7.12502
rthumb 27.7735 -18.9155
lclavicle -4.13472e-014 6.36111e-014
lhumerus 28.3568 -57.0322 9.18985
lradius 80.3045
lwrist -3.05363
lhand -53.6961 25.5176
lfingers 7.12502
lthumb -26.1324 53.7394
rfemur -116.946 -53.9651 31.1826
rtibia 146.448
rfoot -2.5019 3.71261
rtoes -1.26177
lfemur -75.3992 28.1476 -18.2237
ltibia 93.4787
lfoot 8.33664 -10.1183
ltoes 8.3476
1243
root 0.809223 10.2966 -0.53956 -14.8465 59.7524 7.05935
lowerback 39.3832 1.58324 -5.50931
upperback 17.3776 1.96498 5.12227
thorax -0.333004 1.02643 7.62735
lowerneck -2.17548 -14.6615 -14.4727
upperneck -22.9762 -17.6469 17.4311
head -3.49159 -8.69059 7.74303
rclavicle -4.21423e-014 3.65764e-014
rhumerus 61.7299 1.06461 -65.1145
rradius 145.959
rwrist -55.7971
rhand 2.30016 8.88022
rfingers 7.12502
rthumb 27.7916 -19.085
lclavicle -4.21423e-014 3.65764e-014
lhumerus 28.3255 -56.9043 9.28137
lradius 80.3444
lwrist -3.09303
lhand -53.5956 25.6404
lfingers 7.12502
lthumb -26.0362 53.8764
rfemur -117.017 -53.9785 31.1759
rtibia 146.428
rfoot -2.36437 3.70521
rtoes -1.19776
lfemur -75.4215 28.0849 -18.2326
ltibia 93.482
lfoot 8.35969 -10.0466
ltoes 8.58699
1244
root 0.807724 10.296 -0.539999 -14.972 59.7457 6.90877
lowerback 39.3373 1.58524 -5.44468
upperback 17.4045 1.99297 5.11922
thorax -0.293325 1.04365 7.58201
lowerneck -2.36411 -14.7109 -14.5926
upperneck -22.7139 -17.6869 17.5816
head -3.34682 -8.71057 7.76308
rclavicle -2.22639e-014 -3.33958e-014
rhumerus 61.718 0.998391 -65.0161
rradius 145.977
rwrist -55.8709
rhand 2.4683 8.94295
rfingers 7.12502
rthumb 27.9524 -18.9962
lclavicle -2.22639e-014 -3.33958e-014
lhumerus 28.4189 -56.8191 9.17567
lradius 80.3855
lwrist -3.06586
lhand -53.5871 25.3963
lfingers 7.12502
lthumb -26.028 53.6334
rfemur -116.978 -53.909 31.1954
rtibia 146.385
rfoot -2.2415 3.63446
rtoes -0.735576
lfemur -75.4506 28.0856 -18.1344
ltibia 93.4988
lfoot 8.43714 -10.0185
ltoes 8.9829
1245
root 0.80637 10.2952 -0.53778 -15.1106 59.703 6.75598
lowerback 39.2814 1.62274 -5.42318
upperback 17.4271 2.04792 5.11579
thorax -0.259728 1.07121 7.54971
lowerneck -2.39059 -14.7102 -14.402
upperneck -22.7199 -17.6832 17.5252
head -3.36906 -8.71785 7.71963
rclavicle -2.06736e-014 -4.45278e-014
rhumerus 61.6367 0.960674 -64.908
rradius 146.018
rwrist -55.8614
rhand 2.75351 8.91609
rfingers 7.12502
rthumb 28.225 -18.9783
lclavicle -2.06736e-014 -4.45278e-014
lhumerus 28.6217 -56.7399 8.97337
lradius 80.3895
lwrist -3.00434
lhand -53.6205 25.2655
lfingers 7.12502
lthumb -26.06 53.4979
rfemur -116.942 -53.9112 31.296
rtibia 146.382
rfoot -2.25482 3.62212
rtoes -0.695742
lfemur -75.4725 28.1393 -18.0209
ltibia 93.5261
lfoot 8.53452 -10.1237
ltoes 8.53298
1246
root 0.805092 10.2941 -0.535703 -15.1893 59.6683 6.67003
lowerback 39.2429 1.65727 -5.43471
upperback 17.4252 2.08515 5.11254
thorax -0.256023 1.0884 7.54008
lowerneck -2.35064 -14.6752 -14.3692
upperneck -22.7493 -17.6286 17.5836
head -3.3871 -8.69796 7.74209
rclavicle -1.19271e-014 6.04305e-014
rhumerus 61.5258 0.958366 -64.7711
rradius 146.074
rwrist -55.8782
rhand 2.94014 8.63965
rfingers 7.12502
rthumb 28.4034 -19.2251
lclavicle -1.19271e-014 6.04305e-014
lhumerus 28.6102 -56.6579 8.98848
lradius 80.4391
lwrist -2.98098
lhand -53.5865 25.5158
lfingers 7.12502
lthumb -26.0274 53.753
rfemur -116.975 -53.9849 31.4454
rtibia 146.399
rfoot -2.29307 3.63843
rtoes -0.79503
lfemur -75.4986 28.1968 -17.9484
ltibia 93.5539
lfoot 8.72193 -10.272
ltoes 7.93575
1247
root 0.803724 10.2933 -0.534831 -15.2848 59.6773 6.59339
lowerback 39.2697 1.66198 -5.41318
upperback 17.4045 2.09583 5.10658
thorax -0.287769 1.09651 7.51723
lowerneck -2.25759 -14.6398 -14.4592
upperneck -22.7947 -17.5689 17.7504
head -3.39412 -8.67582 7.81848
rclavicle 4.77083e-014 5.88403e-014
rhumerus 61.4189 0.997598 -64.59
rradius 146.089
rwrist -55.8449
rhand 2.78709 8.62494
rfingers 7.12502
rthumb 28.2571 -19.2641
lclavicle 4.77083e-014 5.88403e-014
lhumerus 28.5348 -56.5996 9.09488
lradius 80.4419
lwrist -3.07915
lhand -53.4654 25.2496
lfingers 7.12502
lthumb -25.9114 53.5039
rfemur -116.965 -54.1238 31.554
rtibia 146.398
rfoot -2.29222 3.67727
rtoes -0.572058
lfemur -75.4866 28.2292 -17.9115
ltibia 93.5596
lfoot 8.79253 -10.2864
ltoes 8.32509
1248
root 0.801825 10.2923 -0.534771 -15.4762 59.6674 6.43676
lowerback 39.3302 1.67887 -5.29563
upperback 17.3914 2.15585 5.1062
thorax -0.328075 1.13633 7.43177
lowerneck -2.2518 -14.684 -14.4885
upperneck -22.7418 -17.6206 17.8551
head -3.35522 -8.70798 7.84447
rclavicle -4.45278e-014 7.79236e-014
rhumerus 61.2711 0.980212 -64.3701
rradius 146.101
rwrist -55.7974
rhand 2.54534 8.94379
rfingers 7.12502
rthumb 28.026 -18.9833
lclavicle -4.45278e-014 7.79236e-014
lhumerus 28.8628 -56.5667 8.90768
lradius 80.3551
lwrist -3.12006
lhand -53.4583 24.9857
lfingers 7.12502
lthumb -25.9047 53.241
rfemur -116.806 -54.1517 31.5194
rtibia 146.388
rfoot -2.23768 3.69861
rtoes 0.0921849
lfemur -75.4298 28.2491 -17.8044
ltibia 93.5542
lfoot 8.69905 -10.1961
ltoes 9.28623
1249
root 0.798835 10.2904 -0.534494 -15.5837 59.6366 6.38532
lowerback 39.3721 1.72546 -5.22219
upperback 17.4001 2.23807 5.08865
thorax -0.340707 1.18467 7.34448
lowerneck -2.30035 -14.7148 -14.4742
upperneck -22.6887 -17.6478 17.9275
head -3.31937 -8.72637 7.85264
rclavicle 1.98785e-014 4.77083e-015
rhumerus 61.1624 0.934655 -64.1385
rradius 146.129
rwrist -55.8627
rhand 2.38454 9.1891
rfingers 7.12502
rthumb 27.8723 -18.763
lclavicle 1.98785e-014 4.77083e-015
lhumerus 29.2951 -56.5004 8.6211
lradius 80.2991
lwrist -3.01995
lhand -53.4897 24.9551
lfingers 7.12502
lthumb -25.9347 53.2059
rfemur -116.639 -54.0692 31.3653
rtibia 146.379
rfoot -2.0949 3.66915
rtoes 0.518792
lfemur -75.3535 28.2648 -17.7175
ltibia 93.5438
lfoot 8.64504 -10.1582
ltoes 9.80136
1250
root 0.795895 10.2883 -0.534429 -15.3886 59.7052 6.70932
lowerback 39.4382 1.77349 -5.35644
upperback 17.4115 2.24861 5.01429
thorax -0.344559 1.1875 7.33028
lowerneck -2.24856 -14.6467 -14.4337
upperneck -22.7965 -17.5343 18.0377
head -3.36543 -8.67998 7.90102
rclavicle 7.95139e-016 -1.90833e-014
rhumerus 61.1314 0.971615 -63.9473
rradius 146.144
rwrist -55.8639
rhand 2.16642 9.29565
rfingers 7.12502
rthumb 27.6637 -18.6901
lclavicle 7.95139e-016 -1.90833e-014
lhumerus 29.3983 -56.4003 8.55553
lradius 80.316
lwrist -2.95327
lhand -53.3958 24.599
lfingers 7.12502
lthumb -25.8449 52.863
rfemur -116.778 -54.3101 31.2559
rtibia 146.419
rfoot -1.96333 3.79578
rtoes 0.423539
lfemur -75.2398 28.2046 -17.8534
ltibia 93.5233
lfoot 8.63474 -10.1328
ltoes 9.85191
1251
root 0.793468 10.2872 -0.534845 -15.1595 59.8193 7.07943
lowerback 39.5355 1.8052 -5.5238
upperback 17.4097 2.22797 4.96073
thorax -0.369138 1.17241 7.36559
lowerneck -2.29386 -14.6508 -14.4919
upperneck -22.7493 -17.5276 18.1096
head -3.3305 -8.676 7.92272
rclavicle -3.10104e-014 -6.36111e-015
rhumerus 61.1123 1.05198 -63.7508
rradius 146.141
rwrist -55.7568
rhand 1.91564 9.27043
rfingers 7.12502
rthumb 27.4239 -18.7536
lclavicle -3.10104e-014 -6.36111e-015
lhumerus 29.421 -56.3037 8.61108
lradius 80.3251
lwrist -2.85551
lhand -53.3216 24.376
lfingers 7.12502
lthumb -25.7738 52.6503
rfemur -117.007 -54.7107 31.203
rtibia 146.477
rfoot -1.90044 4.00597
rtoes 0.410385
lfemur -75.1125 28.1007 -18.0531
ltibia 93.4905
lfoot 8.53102 -10.0641
ltoes 9.2686
1252
root 0.791273 10.2884 -0.535907 -15.2026 59.8615 7.11577
lowerback 39.7304 1.8072 -5.50269
upperback 17.2836 2.22755 4.9373
thorax -0.406257 1.17598 7.33315
lowerneck -2.46257 -14.7554 -14.6235
upperneck -22.4787 -17.667 18.1481
head -3.18566 -8.73635 7.9047
rclavicle -3.10104e-014 5.08889e-014
rhumerus 61.0797 1.082 -63.5921
rradius 146.105
rwrist -55.7055
rhand 1.904 9.03304
rfingers 7.12502
rthumb 27.4128 -18.9927
lclavicle -3.10104e-014 5.08889e-014
lhumerus 29.2848 -56.2043 8.76691
lradius 80.4609
lwrist -2.79587
lhand -53.2519 24.1086
lfingers 7.12502
lthumb -25.707 52.3926
rfemur -116.925 -54.8132 31.0787
rtibia 146.457
rfoot -1.83617 4.07842
rtoes 0.485826
lfemur -75.0036 28.0469 -18.0642
ltibia 93.4593
lfoot 8.43623 -10.0205
ltoes 8.7244
1253
root 0.78922 10.2889 -0.535887 -15.3005 59.8502 7.05335
lowerback 39.7515 1.82676 -5.43517
upperback 17.2653 2.27134 4.90547
thorax -0.436534 1.20529 7.24683
lowerneck -2.44049 -14.7909 -14.7691
upperneck -22.353 -17.7115 18.309
head -3.11063 -8.76174 7.95902
rclavicle 3.10104e-014 3.81667e-014
rhumerus 60.9798 0.99989 -63.5057
rradius 146.063
rwrist -55.7955
rhand 1.84282 8.8151
rfingers 7.12502
rthumb 27.3543 -19.2199
lclavicle 3.10104e-014 3.81667e-014
lhumerus 29.1291 -56.1395 8.89101
lradius 80.6414
lwrist -2.92136
lhand -53.1373 23.8858
lfingers 7.12502
lthumb -25.5972 52.1856
rfemur -116.798 -54.7633 31.0129
rtibia 146.419
rfoot -1.8067 4.05854
rtoes 0.449568
lfemur -74.9267 28.016 -17.9768
ltibia 93.5059
lfoot 8.42133 -10.0006
ltoes 8.98089
1254
root 0.789204 10.2846 -0.533099 -15.3357 59.8209 7.0182
lowerback 39.7147 1.88276 -5.41586
upperback 17.2564 2.34453 4.88337
thorax -0.444384 1.24438 7.18766
lowerneck -2.3165 -14.7548 -14.9246
upperneck -22.3807 -17.6535 18.5187
head -3.1053 -8.73965 8.05828
rclavicle 1.51076e-014 -4.29375e-014
rhumerus 60.833 0.940216 -63.3783
rradius 146.065
rwrist -55.9642
rhand 1.6767 8.68182
rfingers 7.12502
rthumb 27.1954 -19.3782
lclavicle 1.51076e-014 -4.29375e-014
lhumerus 29.4548 -56.1143 8.71723
lradius 80.5063
lwrist -2.98406
lhand -53.0734 23.9565
lfingers 7.12502
lthumb -25.5361 52.2651
rfemur -116.834 -54.752 31.1205
rtibia 146.449
rfoot -1.84295 4.01042
rtoes 0.364887
lfemur -74.9348 28.0464 -17.9926
ltibia 93.4977
lfoot 8.4493 -10.1641
ltoes 8.0039
